<svg width="76" height="76" fill="none" xmlns="http://www.w3.org/2000/svg"><g filter="url(#filter0_b_1_32)"><circle cx="38" cy="38" r="38" fill="#fff" fill-opacity=".75"/></g><path d="M52.65 40.843c-.128-.069-.29-.248-.29-.376-.034-1.733-.026-3.466-.051-5.208 0-.358.127-.589.443-.768 1.43-.828 2.23-2.604 1.915-4.277-.553-2.912-3.789-4.329-6.292-2.724-2.052-1.178-4.07-2.348-6.097-3.509-.272-.153-.417-.358-.485-.683-.477-2.288-2.648-3.67-4.845-3.21-1.763.367-2.878 1.494-3.245 3.313-.05.247-.076.486-.366.657a377.731 377.731 0 00-5.696 3.279c-.238.145-.409.145-.656.042a4.136 4.136 0 00-5.032 1.52c-1.21 1.818-.834 4.49 1.175 5.771.213.137.29.29.29.547a198.532 198.532 0 000 5.037c.008.41-.128.614-.469.828-1.533.981-2.137 2.475-1.899 4.106a4.132 4.132 0 005.501 3.304.546.546 0 01.366.034c2.095 1.204 4.19 2.416 6.293 3.612.323.187.468.384.434.768-.026.248.034.504.077.751.408 2.314 2.707 3.723 4.887 3.253 1.976-.427 3.304-2.117 3.287-4.055 0-.248.094-.376.298-.495 2.222-1.281 4.428-2.57 6.65-3.834.153-.085.4-.085.58-.034.68.17 1.344.299 2.077.188a4.13 4.13 0 003.5-3.961c.025-1.76-.81-3.048-2.35-3.876zm-3.534-.265c0 .111-.103.256-.196.316-1.133.649-1.908 1.588-2.112 2.894-.094.59-.026 1.212.043 1.81.034.265 0 .367-.213.495-1.729.99-3.457 1.998-5.177 2.997-.34.196-.681.392-1.014.589-1.626-1.298-3.678-1.324-5.27-.086-2.035-1.178-4.079-2.356-6.14-3.551.418-1.238.35-2.433-.323-3.577-.426-.726-1.039-1.264-1.78-1.64-.23-.119-.29-.247-.29-.478.01-1.605.01-3.218 0-4.823 0-.273.094-.384.333-.487 1.652-.725 2.605-2.21 2.563-3.97-.009-.264-.094-.529-.102-.794-.009-.12.05-.307.144-.358 1.686-.99 3.39-1.964 5.075-2.937 2.035 1.904 4.505 1.69 6.284-.102 1.873 1.084 3.738 2.168 5.595 3.235-.256 1.827.383 3.697 2.4 4.644.095.043.188.214.188.316 0 1.845 0 3.68-.008 5.507zm-6.94-5.857c-1.184-.683-2.35-1.374-3.534-2.066-.485-.281-.988-.316-1.481-.025a312.968 312.968 0 00-3.747 2.194c-.434.256-.639.666-.639 1.17-.008.708 0 1.425 0 2.134 0 .708.009 1.425 0 2.134-.008.53.222.956.656 1.212 1.243.752 2.495 1.46 3.755 2.178.477.264.98.247 1.448-.026 1.209-.692 2.41-1.4 3.61-2.1.51-.3.75-.752.75-1.332v-4.055c.008-.64-.265-1.102-.818-1.418z" fill="#00A7B5"/><defs><filter id="filter0_b_1_32" x="-15" y="-15" width="106" height="106" filterUnits="userSpaceOnUse" color-interpolation-filters="sRGB"><feFlood flood-opacity="0" result="BackgroundImageFix"/><feGaussianBlur in="BackgroundImageFix" stdDeviation="7.5"/><feComposite in2="SourceAlpha" operator="in" result="effect1_backgroundBlur_1_32"/><feBlend in="SourceGraphic" in2="effect1_backgroundBlur_1_32" result="shape"/></filter></defs></svg>