<svg width="188" height="54" fill="none" xmlns="http://www.w3.org/2000/svg"><path d="M41.337 7.204v33.714l-.404.164-17.393 7.102L6.067 41l-.404-.163V7.204L0 9.49v33.388c0 1.06.647 1.959 1.537 2.367l21.033 8.571a2.448 2.448 0 001.86 0l21.033-8.571c.97-.408 1.537-1.306 1.537-2.367V9.57l-5.663-2.367z" fill="#8095F2"/><path d="M41.337 7.204v33.714l-.404.164-17.393 7.102L6.067 41l-.404-.163V7.204L0 9.49v33.388c0 1.06.647 1.959 1.537 2.367l21.033 8.571a2.448 2.448 0 001.86 0l21.033-8.571c.97-.408 1.537-1.306 1.537-2.367V9.57l-5.663-2.367z" fill="#8095F2"/><path d="M37.718 25.735v11.102c0 .98-.567 1.959-1.537 2.449l-11.892 4.816a2.448 2.448 0 01-1.86 0l-11.892-4.898C9.647 38.796 9 37.898 9 36.837V7.53c0-1.062.566-1.96 1.537-2.368L22.429.183a2.448 2.448 0 011.86 0l11.892 4.899c.89.408 1.537 1.306 1.537 2.367v10.449l-5.663-1.96V9.654l-8.737-3.592-8.736 3.592.08 22.694v2.367l8.737 3.592 8.737-3.592v-6.53c0-.59-.277-1.184-1.277-1.684L24.5 23l2.5-4.5 9.1 5.03c.97.327 1.618 1.225 1.618 2.205z" fill="#8095F2"/><path d="M37.718 25.735v11.102c0 .98-.567 1.959-1.537 2.449l-11.892 4.816a2.448 2.448 0 01-1.86 0l-11.892-4.898C9.647 38.796 9 37.898 9 36.837V7.53c0-1.062.566-1.96 1.537-2.368L22.429.183a2.448 2.448 0 011.86 0l11.892 4.899c.89.408 1.537 1.306 1.537 2.367v10.449l-5.663-1.96V9.654l-8.737-3.592-8.736 3.592.08 22.694v2.367l8.737 3.592 8.737-3.592v-6.53c0-.59-.277-1.184-1.277-1.684L24.5 23l2.5-4.5 9.1 5.03c.97.327 1.618 1.225 1.618 2.205z" fill="#8095F2"/><path d="M74.03 25.286c-1.027 0-1.958-.132-2.794-.396-.821-.279-1.525-.682-2.112-1.21-.572-.543-1.02-1.217-1.342-2.024-.308-.807-.462-1.745-.462-2.816V9.6h3.96v8.778c0 1.188.205 2.09.616 2.706.41.601 1.122.902 2.134.902 1.041 0 1.76-.3 2.156-.902.396-.616.594-1.51.594-2.684V9.6h3.96v9.24c0 1.07-.154 2.01-.462 2.816-.308.807-.755 1.481-1.342 2.024-.572.528-1.276.931-2.112 1.21-.821.264-1.753.396-2.794.396zM85.81 9.6h6.71c1.922 0 3.374.462 4.356 1.386.983.924 1.474 2.178 1.474 3.762 0 1.1-.264 2.046-.792 2.838-.513.777-1.29 1.35-2.332 1.716L98.79 25h-4.4l-2.992-5.28H89.77V25h-3.96V9.6zm5.83 7.04c1.056 0 1.775-.154 2.156-.462.396-.323.594-.8.594-1.43 0-.63-.198-1.1-.594-1.408-.381-.323-1.1-.484-2.156-.484h-1.87v3.784h1.87zm18.597 8.646a9.334 9.334 0 01-2.882-.44 6.44 6.44 0 01-2.398-1.386c-.674-.645-1.21-1.46-1.606-2.442-.396-.997-.594-2.2-.594-3.608v-.44c0-1.35.198-2.508.594-3.476.396-.968.932-1.76 1.606-2.376a6.598 6.598 0 012.398-1.364c.91-.293 1.87-.44 2.882-.44s1.973.147 2.882.44a6.37 6.37 0 012.376 1.364c.69.616 1.232 1.408 1.628 2.376.396.968.594 2.127.594 3.476v.44c0 1.408-.198 2.61-.594 3.608-.396.983-.938 1.797-1.628 2.442a6.223 6.223 0 01-2.376 1.386 9.33 9.33 0 01-2.882.44zm0-3.3c.44 0 .866-.066 1.276-.198.411-.147.77-.389 1.078-.726.308-.352.558-.821.748-1.408.191-.587.286-1.335.286-2.244v-.44c0-.85-.095-1.555-.286-2.112-.19-.572-.44-1.02-.748-1.342a2.464 2.464 0 00-1.078-.704 4.141 4.141 0 00-1.276-.198c-.44 0-.865.066-1.276.198a2.47 2.47 0 00-1.078.704c-.308.323-.557.77-.748 1.342-.19.557-.286 1.261-.286 2.112v.44c0 .91.096 1.657.286 2.244.191.587.44 1.056.748 1.408.308.337.668.58 1.078.726.411.132.836.198 1.276.198zm12.2-12.386h3.96v12.144h6.6V25h-10.56V9.6zm21.462 15.686a9.33 9.33 0 01-2.882-.44 6.433 6.433 0 01-2.398-1.386c-.675-.645-1.21-1.46-1.606-2.442-.396-.997-.594-2.2-.594-3.608v-.44c0-1.35.198-2.508.594-3.476.396-.968.931-1.76 1.606-2.376a6.59 6.59 0 012.398-1.364 9.329 9.329 0 012.882-.44c1.012 0 1.973.147 2.882.44a6.386 6.386 0 012.376 1.364c.689.616 1.232 1.408 1.628 2.376.396.968.594 2.127.594 3.476v.44c0 1.408-.198 2.61-.594 3.608-.396.983-.939 1.797-1.628 2.442a6.238 6.238 0 01-2.376 1.386 9.33 9.33 0 01-2.882.44zm0-3.3c.44 0 .865-.066 1.276-.198.411-.147.77-.389 1.078-.726.308-.352.557-.821.748-1.408.191-.587.286-1.335.286-2.244v-.44c0-.85-.095-1.555-.286-2.112-.191-.572-.44-1.02-.748-1.342a2.464 2.464 0 00-1.078-.704 4.146 4.146 0 00-1.276-.198c-.44 0-.865.066-1.276.198-.411.132-.77.367-1.078.704-.308.323-.557.77-.748 1.342-.191.557-.286 1.261-.286 2.112v.44c0 .91.095 1.657.286 2.244.191.587.44 1.056.748 1.408.308.337.667.58 1.078.726.411.132.836.198 1.276.198zm19.02 3.3c-1.056 0-2.032-.147-2.926-.44a6.058 6.058 0 01-2.332-1.386c-.66-.645-1.181-1.467-1.562-2.464-.367-.997-.55-2.193-.55-3.586v-.44c0-1.335.19-2.479.572-3.432.381-.968.902-1.76 1.562-2.376a6.085 6.085 0 012.31-1.386 8.46 8.46 0 012.816-.462c.88 0 1.701.103 2.464.308a5.894 5.894 0 012.024.968c.586.425 1.07.975 1.452 1.65.396.675.652 1.481.77 2.42h-4.092c-.103-.41-.25-.748-.44-1.012a2.312 2.312 0 00-.638-.616 2.13 2.13 0 00-.748-.33 3.639 3.639 0 00-.792-.088 3.7 3.7 0 00-1.298.22 2.374 2.374 0 00-.99.726c-.279.337-.499.785-.66 1.342-.147.557-.22 1.247-.22 2.068v.44c0 .821.08 1.525.242 2.112.161.572.381 1.041.66 1.408.293.367.638.638 1.034.814.41.161.858.242 1.342.242.396 0 .784-.051 1.166-.154.396-.103.74-.264 1.034-.484.308-.22.557-.491.748-.814.19-.337.293-.74.308-1.21h-2.816v-2.508h6.49v1.034c0 1.32-.176 2.45-.528 3.388-.338.939-.814 1.709-1.43 2.31a5.6 5.6 0 01-2.2 1.32c-.836.279-1.76.418-2.772.418zm15.528-6.05l-5.72-9.636h4.576l3.212 5.72 3.036-5.72h4.136l-5.28 9.636V25h-3.96v-5.764zM72.57 47.18c-.744 0-1.452-.12-2.124-.36a4.82 4.82 0 01-1.746-1.152c-.492-.528-.888-1.194-1.188-1.998-.288-.804-.432-1.764-.432-2.88v-.36c0-1.08.144-2.01.432-2.79.3-.78.696-1.422 1.188-1.926a4.728 4.728 0 011.746-1.116 5.999 5.999 0 012.124-.378c.612 0 1.182.09 1.71.27a4.58 4.58 0 011.422.738c.42.324.774.72 1.062 1.188.3.468.522.996.666 1.584h-1.8c-.264-.792-.678-1.368-1.242-1.728a3.318 3.318 0 00-1.818-.54c-.492 0-.96.084-1.404.252-.444.168-.84.438-1.188.81-.336.36-.606.84-.81 1.44-.192.6-.288 1.332-.288 2.196v.36c0 .912.108 1.68.324 2.304.216.612.498 1.11.846 1.494.36.384.756.66 1.188.828a3.74 3.74 0 001.332.252c.996 0 1.806-.282 2.43-.846.624-.564.984-1.488 1.08-2.772h-3.15v-1.44h4.77v.54c0 .972-.12 1.836-.36 2.592-.24.744-.582 1.374-1.026 1.89a4.192 4.192 0 01-1.602 1.152c-.636.264-1.35.396-2.142.396zM84.631 34.4h4.41c.792 0 1.482.096 2.07.288.6.192 1.098.456 1.494.792.396.336.696.738.9 1.206.204.456.306.954.306 1.494 0 .84-.252 1.578-.756 2.214-.492.624-1.224 1.062-2.196 1.314L94.171 47h-1.998l-3.006-5.076h-2.844V47h-1.692V34.4zm4.23 6.084c1.164 0 1.998-.21 2.502-.63.504-.432.756-.99.756-1.674 0-.684-.252-1.236-.756-1.656-.504-.432-1.338-.648-2.502-.648h-2.538v4.608h2.538zm17.005 6.696c-.72 0-1.416-.12-2.088-.36a4.956 4.956 0 01-1.782-1.152c-.516-.516-.93-1.176-1.242-1.98-.312-.804-.468-1.77-.468-2.898v-.36c0-1.08.156-2.01.468-2.79.312-.78.726-1.422 1.242-1.926a4.756 4.756 0 011.782-1.134 6.162 6.162 0 012.088-.36c.72 0 1.416.12 2.088.36.672.24 1.266.618 1.782 1.134.516.504.93 1.146 1.242 1.926.312.78.468 1.71.468 2.79v.36c0 1.128-.156 2.094-.468 2.898-.312.804-.726 1.464-1.242 1.98s-1.11.9-1.782 1.152c-.672.24-1.368.36-2.088.36zm0-1.512c.492 0 .966-.09 1.422-.27a3.2 3.2 0 001.206-.846c.348-.396.624-.9.828-1.512.216-.624.324-1.374.324-2.25v-.36c0-.828-.108-1.536-.324-2.124-.204-.6-.48-1.086-.828-1.458a3.2 3.2 0 00-1.206-.846c-.456-.18-.93-.27-1.422-.27-.492 0-.966.09-1.422.27a3.2 3.2 0 00-1.206.846c-.348.372-.63.858-.846 1.458-.204.588-.306 1.296-.306 2.124v.36c0 .876.102 1.626.306 2.25.216.612.498 1.116.846 1.512a3.2 3.2 0 001.206.846c.456.18.93.27 1.422.27zm17.374 1.512c-.756 0-1.44-.108-2.052-.324a4.035 4.035 0 01-1.548-.99c-.432-.444-.768-1.002-1.008-1.674-.228-.684-.342-1.488-.342-2.412V34.4h1.692v7.38c0 1.368.288 2.358.864 2.97.576.612 1.374.918 2.394.918s1.818-.306 2.394-.918c.576-.612.864-1.602.864-2.97V34.4h1.692v7.38c0 .924-.12 1.728-.36 2.412-.228.672-.558 1.23-.99 1.674a4.014 4.014 0 01-1.566.99c-.6.216-1.278.324-2.034.324zm12.518-12.78h4.32c.828 0 1.548.096 2.16.288.612.192 1.116.462 1.512.81.408.336.708.744.9 1.224.192.468.288.984.288 1.548 0 .564-.096 1.086-.288 1.566a3.184 3.184 0 01-.9 1.224c-.396.336-.9.6-1.512.792-.612.192-1.332.288-2.16.288h-2.628V47h-1.692V34.4zm4.23 6.264c.6 0 1.104-.054 1.512-.162.42-.12.756-.282 1.008-.486.264-.204.45-.456.558-.756.12-.3.18-.63.18-.99s-.06-.69-.18-.99a1.646 1.646 0 00-.558-.756c-.252-.204-.588-.36-1.008-.468-.408-.12-.912-.18-1.512-.18h-2.538v4.788h2.538z" fill="#181A36"/></svg>