<svg width="55" height="44" fill="none" xmlns="http://www.w3.org/2000/svg"><path opacity=".2" d="M52 0a3 3 0 013 3v11.736c0 5.52-.962 10.584-2.937 15.242-1.66 3.974-4.335 8.022-8.027 12.114-1.027 1.138-2.76 1.244-3.964.294l-3.64-2.873c-1.41-1.113-1.525-3.2-.336-4.547 1.591-1.8 2.885-3.53 3.864-5.14a22.303 22.303 0 001.847-3.88c.625-1.742-.792-3.412-2.642-3.412h-3.851a3 3 0 01-3-3V3a3 3 0 013-3H52zM20.401 0a3 3 0 013 3v11.736c0 5.52-.962 10.584-2.937 15.242-1.659 3.974-4.335 8.022-8.027 12.114-1.027 1.138-2.76 1.244-3.964.294l-3.64-2.873c-1.41-1.113-1.525-3.2-.336-4.547 1.591-1.8 2.885-3.53 3.864-5.14a22.302 22.302 0 001.848-3.88c.624-1.742-.793-3.412-2.643-3.412H3.715a3 3 0 01-3-3V3a3 3 0 013-3H20.4z" fill="#fff"/></svg>