<svg width="76" height="76" fill="none" xmlns="http://www.w3.org/2000/svg"><g filter="url(#filter0_b_1_26)"><circle cx="38" cy="38" r="38" fill="#fff" fill-opacity=".75"/></g><path d="M41.265 48.88c-1.873.361-3.695.34-5.6-.143.094.144.126.206.167.247 1.208 1.286 1.686 2.85 1.738 4.55.042 1.152-.03 2.315-.072 3.468-.021.586-.469.988-1 .967-.53-.02-.926-.453-.947-1.03-.041-1.183-.031-2.366-.156-3.54-.198-1.8-1.103-3.18-2.737-4.055-1.884-1.009-3.675-2.13-5.225-3.613-1.832-1.75-3.07-3.798-3.456-6.32-.166-1.121-.166-2.233.052-3.334.125-.628-.02-1.184-.333-1.74-.5-.895-1.01-1.8-1.447-2.727A12.595 12.595 0 0121 26c.01-1.502.01-3.005.021-4.518.01-.854.614-1.472 1.416-1.482.801-.01 1.446.648 1.457 1.503.01.525-.021 1.05-.021 1.585-.01 1.235-.01 2.47-.02 3.705-.022 1.678.613 3.16 1.373 4.611.198.37.53.37.802.01 1.144-1.533 2.622-2.665 4.309-3.55 6.36-3.366 13.427-2.512 18.693 1.554.708.545 1.28 1.266 1.895 1.935.395.432.666.432.936-.072.885-1.657 1.405-3.386 1.322-5.28-.062-1.493-.052-2.985-.062-4.478 0-1.05.957-1.76 1.904-1.43.573.195.948.617.948 1.204.02 1.997.062 3.994-.032 5.98-.104 2.058-.864 3.952-1.842 5.764-.24.442-.49.875-.75 1.307a2.51 2.51 0 00-.343 1.77c.656 4.045-.801 7.308-3.799 9.994-1.301 1.163-2.758 2.1-4.278 2.954-.5.278-.999.556-1.447.906-1.124.854-1.696 2.048-1.842 3.407-.125 1.142-.125 2.305-.156 3.458-.02.7-.364 1.153-.968 1.163-.572 0-.989-.432-1-1.101-.02-1.338-.072-2.676 0-4.004a6.046 6.046 0 011.604-3.808c.073-.083.104-.144.145-.206zm9.493-10.889v-.195c-.02-.227-.031-.463-.063-.69-.322-2.336-1.248-4.405-3.153-5.877-2.467-1.894-5.33-2.882-8.442-3.046-3.09-.155-5.901.792-8.566 2.295-3.226 1.822-5.308 6.464-3.674 10.478.125.308.302.514.614.648 2.883 1.287 5.819 1.451 8.806.422 1.53-.535 3.029-1.142 4.559-1.678 1.603-.566 3.258-.782 4.944-.442 1.176.236 2.248.72 3.268 1.317.52.299.978.155 1.166-.37.322-.927.541-1.873.541-2.862z" fill="#00A7B5"/><defs><filter id="filter0_b_1_26" x="-15" y="-15" width="106" height="106" filterUnits="userSpaceOnUse" color-interpolation-filters="sRGB"><feFlood flood-opacity="0" result="BackgroundImageFix"/><feGaussianBlur in="BackgroundImageFix" stdDeviation="7.5"/><feComposite in2="SourceAlpha" operator="in" result="effect1_backgroundBlur_1_26"/><feBlend in="SourceGraphic" in2="effect1_backgroundBlur_1_26" result="shape"/></filter></defs></svg>